# Blender v2.76 (sub 0) OBJ File: 'muretblend.blend'
# www.blender.org
mtllib muret.mtl
o Cube
v -12.943199 -0.307232 3.097877
v 11.652779 -0.307232 3.097877
v 11.652776 -3.618107 3.097877
v -12.943203 -3.618106 3.097877
v -12.943192 -0.307231 5.159256
v 11.652787 -0.307233 5.159256
v 11.652774 -3.618107 5.159256
v -12.943199 -3.618107 5.159256
vn 0.000000 0.000000 -1.000000
vn 0.000000 0.000000 1.000000
vn 0.000000 1.000000 0.000000
vn 1.000000 -0.000000 -0.000000
vn -0.000000 -1.000000 -0.000000
vn -1.000000 0.000000 0.000000
usemtl Material
s off
f 1//1 2//1 3//1 4//1
f 5//2 8//2 7//2 6//2
f 1//3 5//3 6//3 2//3
f 2//4 6//4 7//4 3//4
f 3//5 7//5 8//5 4//5
f 5//6 1//6 4//6 8//6
