# Blender v2.76 (sub 0) OBJ File: 'muretblend.blend'
# www.blender.org
mtllib muretblend.mtl
o Cube
v -0.175441 2.588640 0.384788
v -0.175441 -2.330556 0.384788
v -0.609626 -2.330555 0.384788
v -0.609626 2.588640 0.384788
v -0.175441 2.588638 1.266639
v -0.175441 -2.330558 1.266639
v -0.609627 -2.330555 1.266639
v -0.609626 2.588640 1.266639
vn -0.000000 0.000000 -1.000000
vn -0.000000 0.000000 1.000000
vn 1.000000 -0.000000 0.000000
vn -0.000000 -1.000000 -0.000000
vn -1.000000 0.000000 -0.000000
vn 0.000000 1.000000 0.000000
usemtl Material
s off
f 1//1 2//1 3//1 4//1
f 5//2 8//2 7//2 6//2
f 1//3 5//3 6//3 2//3
f 2//4 6//4 7//4 3//4
f 3//5 7//5 8//5 4//5
f 5//6 1//6 4//6 8//6
