# Blender v2.76 (sub 0) OBJ File: ''
# www.blender.org
mtllib rondelle.mtl
o Cylinder
v 14.682304 2.843677 6.742001
v 14.682304 3.866467 6.742001
v 16.289516 2.843677 6.583387
v 16.289516 3.866467 6.583387
v 17.834965 2.843677 6.113644
v 17.834965 3.866467 6.113644
v 19.259258 2.843677 5.350821
v 19.259258 3.866467 5.350821
v 20.507660 2.843677 4.324235
v 20.507660 3.866467 4.324235
v 21.532200 2.843677 3.073335
v 21.532200 3.866467 3.073335
v 22.293499 2.843677 1.646195
v 22.293499 3.866467 1.646195
v 22.762306 2.843677 0.097658
v 22.762306 3.866467 0.097658
v 22.920603 2.843677 -1.512767
v 22.920603 3.866467 -1.512767
v 22.762306 2.843677 -3.123192
v 22.762306 3.866467 -3.123192
v 22.293499 2.843677 -4.671730
v 22.293499 3.866467 -4.671730
v 21.532200 2.843677 -6.098871
v 21.532200 3.866467 -6.098871
v 20.507660 2.843677 -7.349771
v 20.507660 3.866467 -7.349771
v 19.259258 2.843677 -8.376357
v 19.259258 3.866467 -8.376357
v 17.834963 2.843677 -9.139180
v 17.834963 3.866467 -9.139180
v 16.289515 2.843677 -9.608923
v 16.289515 3.866467 -9.608923
v 14.682302 2.843677 -9.767536
v 14.682302 3.866467 -9.767536
v 13.075089 2.843677 -9.608922
v 13.075089 3.866467 -9.608922
v 11.529640 2.843677 -9.139178
v 11.529640 3.866467 -9.139178
v 10.105347 2.843677 -8.376354
v 10.105347 3.866467 -8.376354
v 8.856944 2.843677 -7.349767
v 8.856944 3.866467 -7.349767
v 7.832407 2.843677 -6.098866
v 7.832407 3.866467 -6.098866
v 7.071106 2.843677 -4.671725
v 7.071106 3.866467 -4.671725
v 6.602302 2.843677 -3.123186
v 6.602302 3.866467 -3.123186
v 6.444006 2.843677 -1.512760
v 6.444006 3.866467 -1.512760
v 6.602304 2.843677 0.097666
v 6.602304 3.866467 0.097666
v 7.071113 2.843677 1.646204
v 7.071113 3.866467 1.646204
v 7.832415 2.843677 3.073344
v 7.832415 3.866467 3.073344
v 8.856955 2.843677 4.324242
v 8.856955 3.866467 4.324242
v 10.105360 2.843677 5.350827
v 10.105360 3.866467 5.350827
v 11.529655 2.843677 6.113648
v 11.529655 3.866467 6.113648
v 13.075105 2.843677 6.583389
v 13.075105 3.866467 6.583389
vn -0.098200 0.000000 -0.995200
vn -0.290800 0.000000 -0.956800
vn -0.472100 0.000000 -0.881500
vn -0.635200 0.000000 -0.772400
vn -0.773600 0.000000 -0.633600
vn -0.882300 0.000000 -0.470700
vn -0.957100 0.000000 -0.289800
vn -0.995200 0.000000 -0.097800
vn -0.995200 0.000000 0.097800
vn -0.957100 0.000000 0.289800
vn -0.882300 0.000000 0.470700
vn -0.773600 0.000000 0.633600
vn -0.635200 0.000000 0.772400
vn -0.472100 0.000000 0.881500
vn -0.290800 0.000000 0.956800
vn -0.098200 0.000000 0.995200
vn 0.098200 0.000000 0.995200
vn 0.290800 0.000000 0.956800
vn 0.472100 0.000000 0.881500
vn 0.635200 0.000000 0.772400
vn 0.773600 0.000000 0.633600
vn 0.882300 0.000000 0.470700
vn 0.957100 0.000000 0.289800
vn 0.995200 0.000000 0.097800
vn 0.995200 0.000000 -0.097800
vn 0.957100 0.000000 -0.289800
vn 0.882300 0.000000 -0.470700
vn 0.773600 0.000000 -0.633600
vn 0.635100 0.000000 -0.772400
vn 0.472100 0.000000 -0.881500
vn 0.000000 -1.000000 -0.000000
vn 0.098200 0.000000 -0.995200
vn 0.290800 0.000000 -0.956800
vn 0.000000 1.000000 0.000000
usemtl Material.001
s off
f 1//1 2//1 4//1 3//1
f 3//2 4//2 6//2 5//2
f 5//3 6//3 8//3 7//3
f 7//4 8//4 10//4 9//4
f 9//5 10//5 12//5 11//5
f 11//6 12//6 14//6 13//6
f 13//7 14//7 16//7 15//7
f 15//8 16//8 18//8 17//8
f 17//9 18//9 20//9 19//9
f 19//10 20//10 22//10 21//10
f 21//11 22//11 24//11 23//11
f 23//12 24//12 26//12 25//12
f 25//13 26//13 28//13 27//13
f 27//14 28//14 30//14 29//14
f 29//15 30//15 32//15 31//15
f 31//16 32//16 34//16 33//16
f 33//17 34//17 36//17 35//17
f 35//18 36//18 38//18 37//18
f 37//19 38//19 40//19 39//19
f 39//20 40//20 42//20 41//20
f 41//21 42//21 44//21 43//21
f 43//22 44//22 46//22 45//22
f 45//23 46//23 48//23 47//23
f 47//24 48//24 50//24 49//24
f 49//25 50//25 52//25 51//25
f 51//26 52//26 54//26 53//26
f 53//27 54//27 56//27 55//27
f 55//28 56//28 58//28 57//28
f 57//29 58//29 60//29 59//29
f 59//30 60//30 62//30 61//30
f 4//31 2//31 64//31 62//31 60//31 58//31 56//31 54//31 52//31 50//31 48//31 46//31 44//31 42//31 40//31 38//31 36//31 34//31 32//31 30//31 28//31 26//31 24//31 22//31 20//31 18//31 16//31 14//31 12//31 10//31 8//31 6//31
f 63//32 64//32 2//32 1//32
f 61//33 62//33 64//33 63//33
f 1//34 3//34 5//34 7//34 9//34 11//34 13//34 15//34 17//34 19//34 21//34 23//34 25//34 27//34 29//34 31//34 33//34 35//34 37//34 39//34 41//34 43//34 45//34 47//34 49//34 51//34 53//34 55//34 57//34 59//34 61//34 63//34
